<svg xmlns="http://www.w3.org/2000/svg" width="169" height="48" viewBox="0 0 169 48" fill="none"><circle cx="19" cy="24" r="16" fill="none"/><path d="M13.6087 15.5544C13.6209 15.5814 13.6339 15.6132 13.6472 15.6504C13.735 15.8956 13.8066 16.2901 13.8111 16.8696C13.8203 18.0348 13.5599 19.5836 13.0981 21.3467C13.012 21.6754 12.92 22.0075 12.8231 22.3415C12.4146 22.3524 12.2057 22.2661 12.1199 22.2165C12.0006 22.1476 11.8083 21.971 11.6945 21.4295C11.4438 20.2365 11.8297 18.3074 12.6501 16.8073C13.01 16.1491 13.3621 15.7471 13.6087 15.5544Z" fill="white"/><path fill-rule="evenodd" clip-rule="evenodd" d="M18.6644 5.19031C28.9725 5.19031 37.3289 13.6111 37.3289 23.9988C37.3289 34.3864 28.9725 42.8072 18.6644 42.8072C8.35636 42.8072 0 34.3864 0 23.9988C0 13.6111 8.35636 5.19031 18.6644 5.19031ZM15.5664 12.2483C14.1884 11.3456 12.7304 11.6261 11.6623 12.3195C10.685 12.9539 9.92074 13.9703 9.36539 14.9858C8.26749 16.9935 7.53139 19.8582 8.02595 22.2114C8.28481 23.443 8.93203 24.7276 10.253 25.4913C10.6776 25.7367 11.1317 25.9049 11.6087 26.0047C10.8894 27.9611 10.1197 29.7799 9.50647 31.1268C9.07494 32.0746 9.48821 33.1953 10.4295 33.6299C11.3707 34.0644 12.4836 33.6483 12.9151 32.7004C13.7308 30.9089 14.8323 28.2755 15.7562 25.5229C17.651 24.8377 19.9352 23.5278 22.6824 21.4574C22.1494 23.0039 21.6969 24.5824 21.4001 26.0929C20.9876 28.1919 20.8269 30.3902 21.3498 32.2403C21.6193 33.1941 22.087 34.1126 22.8461 34.8545C23.6151 35.6059 24.5872 36.0817 25.7053 36.288C26.7239 36.4759 27.7009 35.7969 27.8875 34.7713C28.0741 33.7456 27.3997 32.7618 26.3812 32.5739C25.9078 32.4865 25.6355 32.3186 25.4575 32.1447C25.2698 31.9613 25.0881 31.6729 24.9564 31.2067C24.6767 30.217 24.7056 28.7232 25.0785 26.826C25.8141 23.0831 27.7007 18.6618 29.243 15.7191C29.669 14.9064 29.452 13.9028 28.729 13.3421C28.006 12.7813 26.987 12.8262 26.3154 13.4484C22.4002 17.0756 19.3815 19.3505 17.1078 20.6919C17.391 19.3464 17.5702 18.025 17.5608 16.8395C17.5486 15.298 17.2077 13.3235 15.5664 12.2483Z" fill="white"/><path d="M46.8651 11.1178H49.2523C51.1155 11.1178 52.6259 12.6399 52.6259 14.5175C53.1604 13.2884 54.0217 12.2321 55.1145 11.4655C56.1175 10.7826 57.302 10.4216 58.5123 10.4299C59.4636 10.4508 60.3978 10.6885 61.2449 11.1253L59.8509 15.0074C59.4793 16.0422 58.2985 16.3551 57.2064 16.3551C56.1748 16.3551 55.301 16.9999 54.5848 18.2896C53.8686 19.5793 53.5129 22.1106 53.5178 25.8836L53.5425 27.1997V38.1263C49.8547 38.1263 46.8651 35.1137 46.8651 31.3974V11.1178Z" fill="white"/><path d="M63.0252 11.1178C67.1832 11.1178 70.9316 13.6426 72.5216 17.5143L76.853 28.0615L81.6664 17.444C83.4129 13.5916 87.2294 11.1203 91.4324 11.1203L77.5497 41.6328C75.7844 45.5127 71.9373 48 67.7018 48L72.4431 37.7609C72.9312 36.707 72.9594 35.4954 72.521 34.4195L63.0252 11.1178Z" fill="white"/><path d="M110.222 14.8999L108.678 16.4526C107.23 17.909 104.968 17.7177 103.083 16.9153C102.519 16.6749 101.977 16.5544 101.457 16.5538C100.828 16.5205 100.205 16.6949 99.6831 17.0504C99.487 17.1828 99.326 17.3615 99.2143 17.571C99.1026 17.7806 99.0436 18.0145 99.0424 18.2524C99.0506 18.6229 99.1956 18.9771 99.449 19.2457C99.72 19.5503 100.389 19.9642 101.457 20.4873L103.921 21.729C106.517 23.0203 108.298 24.3357 109.265 25.675C110.244 27.0477 110.753 28.7036 110.717 30.3933C110.74 31.5265 110.517 32.6511 110.064 33.6887C109.611 34.7262 108.939 35.6517 108.095 36.4004C106.344 38.0096 104.003 38.8142 101.073 38.8142C97.1649 38.8142 94.0438 37.2754 91.7096 34.1977L93.4321 32.3066C94.7167 30.8963 96.941 30.9926 98.6186 31.8907C99.6749 32.4619 100.614 32.7475 101.437 32.7475C102.203 32.7845 102.959 32.5567 103.579 32.1018C104.121 31.6697 104.392 31.1755 104.392 30.6118C104.392 29.5688 103.415 28.5515 101.462 27.5598L99.1952 26.4175C94.8619 24.2256 92.6952 21.4749 92.6952 18.1655C92.6952 16.0315 93.5116 14.2104 95.1444 12.7022C96.7772 11.194 98.865 10.4365 101.408 10.4299C103.123 10.4214 104.815 10.822 106.347 11.5988C107.879 12.3757 109.206 13.5069 110.222 14.8999Z" fill="white"/><path d="M112.809 11.1178H115.196C115.213 7.5766 115.27 5.48399 115.369 4.83998C115.43 4.15546 115.626 3.49009 115.945 2.88287C116.265 2.27566 116.701 1.73879 117.229 1.30374C118.285 0.43458 119.783 0 121.721 0C123.119 0 124.696 0.322831 126.452 0.968493V3.67702C126.452 4.89122 125.266 5.75601 124.062 5.71162C123.273 5.71162 122.698 5.87718 122.337 6.20829C122.076 6.45662 121.943 6.97067 121.943 7.74794L121.918 11.1228H126.178V12.5587C126.178 14.9297 124.271 16.8518 121.918 16.8518V31.3453C121.918 35.0862 118.909 38.1189 115.196 38.1189V16.8518H112.809V11.1178Z" fill="white"/><path d="M129.379 7.47142C129.379 3.72909 132.39 0.695328 136.103 0.695328V31.3428C136.103 35.0851 133.093 38.1189 129.379 38.1189V7.47142Z" fill="white"/><path d="M154.788 10.4299C157.295 10.4181 159.76 11.0753 161.933 12.3346C164.086 13.5584 165.876 15.3388 167.118 17.4922C168.36 19.6456 169.01 22.094 169 24.5848C169.009 27.0972 168.356 29.5669 167.108 31.7417C165.896 33.9123 164.121 35.7091 161.973 36.9393C159.791 38.1928 157.318 38.8398 154.807 38.8142C152.974 38.8421 151.154 38.4897 149.462 37.7788C147.769 37.0679 146.24 36.0138 144.969 34.682C142.26 31.9238 140.905 28.578 140.903 24.6444C140.903 20.4261 142.438 16.9097 145.508 14.0953C148.202 11.6517 151.295 10.4299 154.788 10.4299ZM154.899 16.8096C153.926 16.7841 152.959 16.9657 152.061 17.3428C151.163 17.7198 150.354 18.2836 149.687 18.9974C148.294 20.4625 147.599 22.3366 147.603 24.6196C147.603 26.9688 148.289 28.8727 149.663 30.3312C151.036 31.7897 152.775 32.5182 154.879 32.5165C155.859 32.5416 156.834 32.3576 157.74 31.9768C158.645 31.5959 159.46 31.0267 160.132 30.3064C161.53 28.8346 162.229 26.9407 162.229 24.6246C162.229 22.3084 161.542 20.4244 160.169 18.9725C158.797 17.5239 157.042 16.8005 154.903 16.8021L154.899 16.8096Z" fill="white"/></svg>
